####
#
# OBJ File Generated by Meshlab
#
####
# Object Star.obj
#
# Vertices: 36
# Faces: 60
#
####
mtllib ./Star.obj.mtl

vn 0.203389 0.000277 -0.069255
v 7.889562 1.150329 -2.173651 1.000000 0.831373 0.211765
vn 1.399859 0.025939 -2.878994
v 2.212808 1.150329 -2.230414 1.000000 0.831373 0.211765
vn 0.001255 0.000298 -0.217110
v 0.068023 1.150328 -7.923502 1.000000 0.831373 0.211765
vn -1.348940 0.026192 -2.896500
v -2.151306 1.150329 -2.254857 1.000000 0.831373 0.211765
vn -0.202490 0.000280 -0.071547
v -7.817406 1.150328 -2.261558 1.000000 0.831373 0.211765
vn -2.342577 0.013974 0.262062
v -3.523133 1.150328 1.888122 1.000000 0.831373 0.211765
vn -0.129799 0.000255 0.171041
v -4.869315 1.150328 6.987552 1.000000 0.831373 0.211765
vn -0.006246 0.008527 1.867769
v -0.006854 1.150329 4.473047 1.000000 0.831373 0.211765
vn 0.127951 0.000253 0.172424
v 4.838127 1.150328 7.041885 1.000000 0.831373 0.211765
vn 2.361289 0.013652 0.282927
v 3.538153 1.150329 1.927652 1.000000 0.831373 0.211765
vn 0.005136 -5.920514 -0.267825
v 0.033757 0.000000 -0.314657 1.000000 0.831373 0.211765
vn 0.005584 5.938619 -0.261947
v 0.035668 2.269531 -0.312831 1.000000 0.831373 0.211765
vn 0.203389 0.000277 -0.069255
v 7.889562 1.150329 -2.173651 1.000000 0.831373 0.211765
vn 1.399859 0.025939 -2.878994
v 2.212808 1.150329 -2.230414 1.000000 0.831373 0.211765
vn 0.001255 0.000298 -0.217110
v 0.068023 1.150328 -7.923502 1.000000 0.831373 0.211765
vn -1.348940 0.026192 -2.896500
v -2.151306 1.150329 -2.254857 1.000000 0.831373 0.211765
vn -0.202490 0.000280 -0.071547
v -7.817406 1.150328 -2.261558 1.000000 0.831373 0.211765
vn -2.342577 0.013974 0.262062
v -3.523133 1.150328 1.888122 1.000000 0.831373 0.211765
vn -0.129799 0.000255 0.171041
v -4.869315 1.150328 6.987552 1.000000 0.831373 0.211765
vn -0.006246 0.008527 1.867769
v -0.006854 1.150329 4.473047 1.000000 0.831373 0.211765
vn 0.127951 0.000253 0.172424
v 4.838127 1.150328 7.041885 1.000000 0.831373 0.211765
vn 2.361289 0.013652 0.282927
v 3.538153 1.150329 1.927652 1.000000 0.831373 0.211765
vn 0.005136 -5.920514 -0.267825
v 0.033757 0.000000 -0.314657 1.000000 0.831373 0.211765
vn 0.005584 5.938619 -0.261947
v 0.035668 2.269531 -0.312831 1.000000 0.831373 0.211765
vn 0.203389 0.000277 -0.069255
v 7.889562 1.150329 -2.173651 1.000000 0.831373 0.211765
vn 1.399859 0.025939 -2.878994
v 2.212808 1.150329 -2.230414 1.000000 0.831373 0.211765
vn 0.001255 0.000298 -0.217110
v 0.068023 1.150328 -7.923502 1.000000 0.831373 0.211765
vn -1.348940 0.026192 -2.896500
v -2.151306 1.150329 -2.254857 1.000000 0.831373 0.211765
vn -0.202490 0.000280 -0.071547
v -7.817406 1.150328 -2.261558 1.000000 0.831373 0.211765
vn -2.342577 0.013974 0.262062
v -3.523133 1.150328 1.888122 1.000000 0.831373 0.211765
vn -0.129799 0.000255 0.171041
v -4.869315 1.150328 6.987552 1.000000 0.831373 0.211765
vn -0.006246 0.008527 1.867769
v -0.006854 1.150329 4.473047 1.000000 0.831373 0.211765
vn 0.127951 0.000253 0.172424
v 4.838127 1.150328 7.041885 1.000000 0.831373 0.211765
vn 2.361289 0.013652 0.282927
v 3.538153 1.150329 1.927652 1.000000 0.831373 0.211765
vn 0.005136 -5.920514 -0.267825
v 0.033757 0.000000 -0.314657 1.000000 0.831373 0.211765
vn 0.005584 5.938619 -0.261947
v 0.035668 2.269531 -0.312831 1.000000 0.831373 0.211765
# 36 vertices, 0 vertices normals


usemtl material_0
vt 0.375000 0.312500
vt 0.500000 0.688440
vt 0.400000 0.312500
f 1/1/1 11/2/11 2/3/2
vt 0.425000 0.312500
f 2/3/2 11/2/11 3/4/3
vt 0.450000 0.312500
f 3/4/3 11/2/11 4/5/4
vt 0.475000 0.312500
f 4/5/4 11/2/11 5/6/5
vt 0.500000 0.312500
f 5/6/5 11/2/11 6/7/6
vt 0.525000 0.312500
f 6/7/6 11/2/11 7/8/7
vt 0.550000 0.312500
f 7/8/7 11/2/11 8/9/8
vt 0.575000 0.312500
f 8/9/8 11/2/11 9/10/9
vt 0.600000 0.312500
f 9/10/9 11/2/11 10/11/10
vt 0.625000 0.312500
f 10/11/10 11/2/11 1/12/1
vt 0.626409 0.064409
vt 0.500000 0.156250
vt 0.656250 0.156250
f 1/13/1 12/14/12 10/15/10
vt 0.626409 0.248091
f 10/15/10 12/14/12 9/16/9
vt 0.548284 0.304853
f 9/16/9 12/14/12 8/17/8
vt 0.451716 0.304853
f 8/17/8 12/14/12 7/18/7
vt 0.373591 0.248091
f 7/18/7 12/14/12 6/19/6
vt 0.343750 0.156250
f 6/19/6 12/14/12 5/20/5
vt 0.373591 0.064409
f 5/20/5 12/14/12 4/21/4
vt 0.451716 0.007647
f 4/21/4 12/14/12 3/22/3
vt 0.548284 0.007647
f 3/22/3 12/14/12 2/23/2
f 2/23/2 12/14/12 1/13/1
f 13/1/13 23/2/23 14/3/14
f 14/3/14 23/2/23 15/4/15
f 15/4/15 23/2/23 16/5/16
f 16/5/16 23/2/23 17/6/17
f 17/6/17 23/2/23 18/7/18
f 18/7/18 23/2/23 19/8/19
f 19/8/19 23/2/23 20/9/20
f 20/9/20 23/2/23 21/10/21
f 21/10/21 23/2/23 22/11/22
f 22/11/22 23/2/23 13/12/13
f 13/13/13 24/14/24 22/15/22
f 22/15/22 24/14/24 21/16/21
f 21/16/21 24/14/24 20/17/20
f 20/17/20 24/14/24 19/18/19
f 19/18/19 24/14/24 18/19/18
f 18/19/18 24/14/24 17/20/17
f 17/20/17 24/14/24 16/21/16
f 16/21/16 24/14/24 15/22/15
f 15/22/15 24/14/24 14/23/14
f 14/23/14 24/14/24 13/13/13
f 25/1/25 35/2/35 26/3/26
f 26/3/26 35/2/35 27/4/27
f 27/4/27 35/2/35 28/5/28
f 28/5/28 35/2/35 29/6/29
f 29/6/29 35/2/35 30/7/30
f 30/7/30 35/2/35 31/8/31
f 31/8/31 35/2/35 32/9/32
f 32/9/32 35/2/35 33/10/33
f 33/10/33 35/2/35 34/11/34
f 34/11/34 35/2/35 25/12/25
f 25/13/25 36/14/36 34/15/34
f 34/15/34 36/14/36 33/16/33
f 33/16/33 36/14/36 32/17/32
f 32/17/32 36/14/36 31/18/31
f 31/18/31 36/14/36 30/19/30
f 30/19/30 36/14/36 29/20/29
f 29/20/29 36/14/36 28/21/28
f 28/21/28 36/14/36 27/22/27
f 27/22/27 36/14/36 26/23/26
f 26/23/26 36/14/36 25/13/25
# 60 faces, 23 coords texture

# End of File
